<svg width="30" height="37" viewBox="0 0 30 37" fill="none" xmlns="http://www.w3.org/2000/svg">
<path d="M29.0602 12.7824C26.6024 14.2647 25.0843 16.8059 25.0843 19.6294C25.0843 22.8059 27.0361 25.7 30 26.9C29.4217 28.7353 28.5542 30.4294 27.4699 31.9824C25.8795 34.1706 24.2169 36.4294 21.759 36.4294C19.3012 36.4294 18.5783 35.0177 15.6867 35.0177C12.8675 35.0177 11.8554 36.5 9.54217 36.5C7.22892 36.5 5.63855 34.4529 3.83133 31.9118C1.44578 28.3824 0.0722892 24.2882 0 19.9824C0 12.9941 4.62651 9.25294 9.25301 9.25294C11.7108 9.25294 13.7349 10.8059 15.253 10.8059C16.6988 10.8059 19.012 9.18235 21.759 9.18235C24.6506 9.11177 27.3976 10.4529 29.0602 12.7824ZM20.4578 6.21765C21.6867 4.80588 22.3373 3.04118 22.4096 1.20588C22.4096 0.994118 22.4096 0.711765 22.3373 0.5C20.241 0.711765 18.2892 1.7 16.9157 3.25294C15.6867 4.59412 14.9639 6.28824 14.8916 8.12353C14.8916 8.3353 14.8916 8.54706 14.9639 8.75882C15.1084 8.75882 15.3253 8.82941 15.4699 8.82941C17.4217 8.68824 19.2289 7.7 20.4578 6.21765Z" fill="black"/>
</svg>
