<svg width="50" height="51" viewBox="0 0 50 51" fill="none" xmlns="http://www.w3.org/2000/svg">
<rect y="0.5" width="50" height="50" rx="25" fill="#E9E9E9"/>
<path d="M24.0215 14.0156V22.5H22.498L18.7715 17.1094H18.7012V22.5H16.9434V14.0156H18.4902L22.1934 19.4062H22.2754V14.0156H24.0215ZM33.2207 18.2578C33.2207 21.0234 31.498 22.6172 29.2598 22.6172C26.998 22.6172 25.2871 21.0117 25.2871 18.2578C25.2871 15.4922 26.998 13.8984 29.2598 13.8984C31.498 13.8984 33.2207 15.4922 33.2207 18.2578ZM31.4277 18.2578C31.4277 16.4414 30.5723 15.457 29.2598 15.457C27.9473 15.457 27.0801 16.4414 27.0801 18.2578C27.0801 20.0742 27.9473 21.0586 29.2598 21.0586C30.5723 21.0586 31.4277 20.0742 31.4277 18.2578ZM8.54688 28.0156V36.5H6.78906V28.0156H8.54688ZM9.97656 28.0156H12.1562L14.5117 33.7695H14.6055L16.9609 28.0156H19.1406V36.5H17.4297V30.9453H17.3594L15.1445 36.4648H13.9727L11.7578 30.9219H11.6875V36.5H9.97656V28.0156ZM21.9883 36.5H20.0898L23.0312 28.0156H25.293L28.2227 36.5H26.3359L25.7031 34.543H22.6328L21.9883 36.5ZM23.0781 33.1719H25.2578L24.1914 29.9258H24.1328L23.0781 33.1719ZM34.4219 30.7461C34.1875 29.9492 33.543 29.457 32.6172 29.457C31.3047 29.457 30.4141 30.4648 30.4141 32.2461C30.4141 34.0391 31.2812 35.0586 32.6289 35.0586C33.8418 35.0586 34.5625 34.373 34.5859 33.3008H32.7461V31.9766H36.2852V33.0312C36.2852 35.2578 34.7617 36.6172 32.6172 36.6172C30.2383 36.6172 28.6211 34.9531 28.6211 32.2695C28.6211 29.5156 30.3438 27.8984 32.582 27.8984C34.4922 27.8984 35.9688 29.0703 36.2031 30.7461H34.4219ZM37.5742 36.5V28.0156H43.2695V29.4688H39.332V31.5312H42.9766V32.9844H39.332V35.0469H43.2812V36.5H37.5742Z" fill="black"/>
</svg>
