<svg width="16" height="17" viewBox="0 0 16 17" fill="none" xmlns="http://www.w3.org/2000/svg">
<path fill-rule="evenodd" clip-rule="evenodd" d="M7.32 0.528977C8.70071 0.411141 10.0884 0.653991 11.347 1.23374C12.6056 1.81349 13.6921 2.71025 14.5 3.83618V2.25008C14.5 2.05116 14.579 1.86038 14.7197 1.71972C14.8603 1.57906 15.0511 1.50004 15.25 1.50004C15.4489 1.50004 15.6397 1.57906 15.7803 1.71972C15.921 1.86038 16 2.05116 16 2.25008V6.50035H11.75C11.5511 6.50035 11.3603 6.42133 11.2197 6.28066C11.079 6.14 11 5.94923 11 5.7503C11 5.55138 11.079 5.3606 11.2197 5.21994C11.3603 5.07928 11.5511 5.00026 11.75 5.00026H13.477C12.7931 3.93009 11.8107 3.08372 10.6512 2.56569C9.4917 2.04766 8.20584 1.88067 6.95248 2.08534C5.69912 2.29001 4.53316 2.85737 3.59864 3.71735C2.66412 4.57733 2.00198 5.69225 1.694 6.92437C1.67128 7.02116 1.62955 7.11247 1.57123 7.19298C1.51291 7.2735 1.43917 7.34161 1.35429 7.39337C1.26942 7.44513 1.1751 7.47949 1.07682 7.49447C0.97854 7.50944 0.878265 7.50473 0.781825 7.4806C0.685385 7.45647 0.594703 7.41341 0.515053 7.35392C0.435404 7.29443 0.368375 7.2197 0.317865 7.13407C0.267355 7.04844 0.234371 6.95362 0.220832 6.85513C0.207293 6.75664 0.213469 6.65644 0.239 6.56035C0.643544 4.94268 1.5434 3.49184 2.81279 2.41064C4.08218 1.32944 5.65766 0.671917 7.319 0.529977L7.32 0.528977ZM3.92 15.3819C4.99199 16.0173 6.19758 16.3935 7.44068 16.4805C8.68378 16.5675 9.93001 16.3628 11.08 15.8829C12.23 15.4029 13.252 14.6609 14.0646 13.7161C14.8771 12.7712 15.4577 11.6496 15.76 10.4406C15.805 10.2488 15.7728 10.0469 15.6702 9.87872C15.5676 9.7105 15.403 9.58939 15.2119 9.54158C15.0207 9.49376 14.8185 9.52307 14.6488 9.62318C14.4791 9.72329 14.3556 9.88615 14.305 10.0766C13.9969 11.3084 13.3347 12.4231 12.4002 13.2828C11.4658 14.1426 10.3 14.7098 9.04688 14.9145C7.79373 15.1191 6.50809 14.9522 5.34871 14.4344C4.18933 13.9166 3.20699 13.0705 2.523 12.0007H4.25C4.44891 12.0007 4.63968 11.9217 4.78033 11.781C4.92098 11.6403 5 11.4496 5 11.2506C5 11.0517 4.92098 10.8609 4.78033 10.7203C4.63968 10.5796 4.44891 10.5006 4.25 10.5006H0V14.7509C0 14.9498 0.0790176 15.1406 0.21967 15.2812C0.360322 15.4219 0.551088 15.5009 0.75 15.5009C0.948912 15.5009 1.13968 15.4219 1.28033 15.2812C1.42098 15.1406 1.5 14.9498 1.5 14.7509V13.1648C2.14478 14.0631 2.96879 14.8181 3.92 15.3819Z" fill="white"/>
</svg>
