<svg width="40" height="7" viewBox="0 0 40 7" fill="none" xmlns="http://www.w3.org/2000/svg">
<path d="M1.51982 2.07345C1.49046 1.96206 1.4978 1.85066 1.51248 1.788C1.54919 1.61395 1.67401 1.42597 2.03377 1.42597C2.37151 1.42597 2.56241 1.62091 2.56241 1.92028C2.56241 2.01775 2.56241 2.25447 2.56241 2.25447H3.98678V1.87155C3.99413 0.687979 2.87078 0.5 2.06314 0.5C1.04993 0.5 0.220264 0.82026 0.0660793 1.70446C0.0220264 1.94813 0.0146843 2.16396 0.0807636 2.43548C0.330397 3.54247 2.36417 3.86273 2.65786 4.56591C2.71659 4.69819 2.69457 4.86528 2.67254 4.96972C2.62849 5.15073 2.49633 5.33871 2.11454 5.33871C1.75477 5.33871 1.54185 5.14377 1.54185 4.8444V4.32223H0V4.73996C0 5.95138 1.00587 6.31342 2.07783 6.31342C3.11307 6.31342 3.95742 5.97923 4.09692 5.07415C4.163 4.60768 4.1116 4.30135 4.08957 4.18995C3.85463 3.04119 1.68135 2.70701 1.51982 2.07345ZM20.1175 2.08041C20.0954 1.97598 20.1028 1.85762 20.1101 1.80193C20.1542 1.62787 20.2717 1.43989 20.6314 1.43989C20.9618 1.43989 21.1527 1.63483 21.1527 1.92725C21.1527 2.02472 21.1527 2.26143 21.1527 2.26143H22.5624V1.88547C22.5624 0.715827 21.4611 0.534811 20.6608 0.534811C19.6549 0.534811 18.8326 0.848109 18.6784 1.72534C18.6417 1.96206 18.627 2.17788 18.6931 2.44941C18.9354 3.54247 20.9471 3.86273 21.2408 4.55895C21.2922 4.69123 21.2775 4.85832 21.2482 4.95579C21.2041 5.13681 21.0793 5.31782 20.6975 5.31782C20.3451 5.31782 20.1248 5.12288 20.1248 4.83047V4.30831H18.605V4.71908C18.605 5.91657 19.5962 6.2786 20.6608 6.2786C21.6814 6.2786 22.5257 5.94442 22.6579 5.05326C22.7239 4.5868 22.6725 4.28742 22.6505 4.17603C22.4229 3.04816 20.279 2.71397 20.1175 2.08041ZM33.0984 5.03934L31.7548 0.674054H29.6329V6.04189H31.0352L30.9545 1.53736L32.4009 6.04189H34.4347V0.674054H33.025L33.0984 5.03934ZM6.12335 0.674054L5.05874 6.09759H6.60059L7.40088 1.07786L8.17915 6.09759H9.71366L8.66373 0.674054H6.12335ZM14.7577 0.674054L14.0382 4.91402L13.3186 0.674054H10.9838L10.859 6.09759H12.2907L12.3275 1.07786L13.3113 6.09759H14.7577L15.7416 1.07786L15.7783 6.09759H17.21L17.0852 0.674054H14.7577ZM28.047 0.674054H26.6006V4.68427C26.6006 4.75389 26.6006 4.83047 26.5859 4.89313C26.5565 5.02541 26.4391 5.28998 26.0352 5.28998C25.6388 5.28998 25.5213 5.03237 25.4919 4.89313C25.4772 4.83743 25.4772 4.75389 25.4772 4.68427V0.674054H24.0308V4.55895C24.0308 4.65642 24.0382 4.86528 24.0455 4.91402C24.1483 5.92353 24.9853 6.25772 26.0352 6.25772C27.0852 6.25772 27.9295 5.9305 28.0323 4.91402C28.0396 4.85832 28.0543 4.65642 28.047 4.55895V0.674054ZM37.9736 3.04816V3.84184H38.5609V4.62857C38.5609 4.69819 38.5609 4.77477 38.5463 4.83743C38.5242 4.98364 38.3774 5.23428 37.9589 5.23428C37.5477 5.23428 37.4009 4.98364 37.3789 4.83743C37.3715 4.77477 37.3642 4.69819 37.3642 4.62857V2.15004C37.3642 2.05953 37.3715 1.96902 37.3935 1.89243C37.4229 1.76015 37.5477 1.50255 37.9589 1.50255C38.3994 1.50255 38.5022 1.77408 38.5316 1.89243C38.5463 1.96902 38.5463 2.1013 38.5463 2.1013V2.40067H39.9853V2.21966C39.9853 2.21966 39.9927 2.03168 39.978 1.85762C39.8678 0.848109 38.9794 0.527849 37.9662 0.527849C36.953 0.527849 36.0866 0.855071 35.9618 1.86459C35.9471 1.95509 35.9325 2.12219 35.9325 2.22662V4.50325C35.9325 4.60072 35.9325 4.6773 35.9545 4.85832C36.0499 5.84695 36.953 6.19506 37.9662 6.19506C38.9868 6.19506 39.8825 5.84695 39.978 4.85832C39.9927 4.6773 40 4.60072 40 4.50325V3.04816H37.9736Z" fill="black"/>
</svg>
