<svg width="14" height="15" viewBox="0 0 14 15" fill="none" xmlns="http://www.w3.org/2000/svg">
<path d="M13.3842 1.11584C12.5631 0.294721 11.2493 0.294721 10.4282 1.11584L8.95015 2.59384L8.37537 2.01906C8.04692 1.69062 7.55425 1.69062 7.22581 2.01906L6.56892 2.59384C6.24047 2.92229 6.24047 3.41496 6.56892 3.7434L10.6745 7.84897C11.0029 8.17742 11.4956 8.17742 11.824 7.84897L12.3988 7.27419C12.7273 6.94575 12.7273 6.45308 12.3988 6.12463L11.9062 5.54985L13.3842 4.07185C14.2053 3.25073 14.2053 1.93695 13.3842 1.11584ZM2.38123 9.16276C0.57478 10.9692 1.64223 11.7903 0 13.9252L0.57478 14.5C2.70968 12.8578 3.53079 13.9252 5.33724 12.1188L9.52493 7.93109L6.56892 4.97507L2.38123 9.16276Z" fill="#1A1A1A"/>
</svg>
