<svg width="17" height="17" viewBox="0 0 17 17" fill="none" xmlns="http://www.w3.org/2000/svg">
<path fill-rule="evenodd" clip-rule="evenodd" d="M12.8804 11.6094C14.0018 10.1631 14.5303 8.34382 14.3584 6.52158C14.1865 4.69933 13.3271 3.01104 11.955 1.80018C10.583 0.589314 8.8014 -0.0531645 6.97266 0.00344697C5.14392 0.0600585 3.40542 0.811507 2.11085 2.10492C0.815153 3.39923 0.0615474 5.13909 0.00360618 6.96995C-0.054335 8.80081 0.587749 10.5849 1.79901 11.9586C3.01028 13.3323 4.69956 14.1923 6.52261 14.3632C8.34566 14.5342 10.1653 14.0033 11.6107 12.8788L11.6493 12.9193L15.464 16.7364C15.5476 16.8199 15.6467 16.8862 15.7559 16.9315C15.8651 16.9767 15.9821 17 16.1002 17C16.2184 17 16.3354 16.9767 16.4446 16.9315C16.5537 16.8862 16.6529 16.8199 16.7365 16.7364C16.82 16.6528 16.8863 16.5535 16.9315 16.4443C16.9767 16.3351 17 16.2181 17 16.0999C17 15.9817 16.9767 15.8646 16.9315 15.7554C16.8863 15.6462 16.82 15.547 16.7365 15.4634L12.9209 11.6472L12.8804 11.6094ZM11.0136 3.37788C11.5213 3.8776 11.9251 4.47295 12.2017 5.12957C12.4782 5.78619 12.6221 6.4911 12.625 7.20363C12.6279 7.91616 12.4898 8.62222 12.2186 9.28107C11.9473 9.93993 11.5484 10.5385 11.0448 11.0424C10.5411 11.5462 9.94274 11.9453 9.28415 12.2167C8.62556 12.488 7.91978 12.6262 7.20753 12.6233C6.49528 12.6204 5.79066 12.4764 5.1343 12.1997C4.47793 11.9231 3.88283 11.5191 3.38331 11.0112C2.38505 9.99612 1.82817 8.62757 1.83397 7.20363C1.83976 5.77969 2.40777 4.41573 3.41425 3.40884C4.42074 2.40195 5.78416 1.83372 7.20753 1.82793C8.6309 1.82213 9.99891 2.37923 11.0136 3.37788Z" fill="white"/>
<path d="M7.57143 3.57143C7.57143 3.41988 7.51122 3.27453 7.40406 3.16737C7.2969 3.0602 7.15155 3 7 3C6.84845 3 6.7031 3.0602 6.59594 3.16737C6.48878 3.27453 6.42857 3.41988 6.42857 3.57143V6.42857H3.57143C3.41988 6.42857 3.27453 6.48878 3.16737 6.59594C3.0602 6.7031 3 6.84845 3 7C3 7.15155 3.0602 7.2969 3.16737 7.40406C3.27453 7.51122 3.41988 7.57143 3.57143 7.57143H6.42857V10.4286C6.42857 10.5801 6.48878 10.7255 6.59594 10.8326C6.7031 10.9398 6.84845 11 7 11C7.15155 11 7.2969 10.9398 7.40406 10.8326C7.51122 10.7255 7.57143 10.5801 7.57143 10.4286V7.57143H10.4286C10.5801 7.57143 10.7255 7.51122 10.8326 7.40406C10.9398 7.2969 11 7.15155 11 7C11 6.84845 10.9398 6.7031 10.8326 6.59594C10.7255 6.48878 10.5801 6.42857 10.4286 6.42857H7.57143V3.57143Z" fill="white"/>
</svg>
