<svg width="9" height="10" viewBox="0 0 9 10" fill="none" xmlns="http://www.w3.org/2000/svg">
<path fill-rule="evenodd" clip-rule="evenodd" d="M4.76506 6.39013C4.69473 6.46043 4.59937 6.49993 4.49993 6.49993C4.4005 6.49993 4.30513 6.46043 4.23481 6.39013L2.11343 4.26876C2.07762 4.23416 2.04905 4.19278 2.02939 4.14703C2.00974 4.10128 1.9994 4.05207 1.99896 4.00228C1.99853 3.95249 2.00802 3.90311 2.02687 3.85702C2.04573 3.81094 2.07358 3.76907 2.10878 3.73386C2.14399 3.69865 2.18586 3.6708 2.23195 3.65195C2.27804 3.63309 2.32742 3.6236 2.37721 3.62404C2.427 3.62447 2.47621 3.63481 2.52196 3.65447C2.56771 3.67412 2.60909 3.70269 2.64368 3.73851L4.49993 5.59476L6.35618 3.73851C6.42691 3.6702 6.52163 3.6324 6.61996 3.63325C6.71828 3.63411 6.81234 3.67355 6.88186 3.74307C6.95139 3.8126 6.99083 3.90666 6.99169 4.00498C6.99254 4.1033 6.95474 4.19803 6.88643 4.26876L4.76506 6.39013Z" fill="#888888"/>
</svg>
