<svg width="40" height="40" viewBox="0 0 40 40" fill="none" xmlns="http://www.w3.org/2000/svg">
<g clip-path="url(#clip0_563_11250)">
<path fill-rule="evenodd" clip-rule="evenodd" d="M13.8215 21.1844C13.509 20.8719 13.3335 20.448 13.3335 20.0061C13.3335 19.5642 13.509 19.1403 13.8215 18.8278L23.2498 9.39944C23.4036 9.24026 23.5875 9.11328 23.7908 9.02594C23.9941 8.93859 24.2128 8.89261 24.4341 8.89069C24.6554 8.88876 24.8749 8.93093 25.0797 9.01474C25.2846 9.09854 25.4706 9.22229 25.6271 9.37878C25.7836 9.53527 25.9074 9.72135 25.9912 9.92618C26.075 10.131 26.1171 10.3505 26.1152 10.5718C26.1133 10.7931 26.0673 11.0118 25.98 11.2151C25.8926 11.4185 25.7657 11.6024 25.6065 11.7561L17.3565 20.0061L25.6065 28.2561C25.9101 28.5704 26.0781 28.9914 26.0743 29.4284C26.0705 29.8654 25.8952 30.2835 25.5862 30.5925C25.2772 30.9015 24.8591 31.0768 24.4221 31.0806C23.9851 31.0844 23.5641 30.9164 23.2498 30.6128L13.8215 21.1844Z" fill="white"/>
</g>
<defs>
<clipPath id="clip0_563_11250">
<rect width="40" height="40" fill="white"/>
</clipPath>
</defs>
</svg>
